{
    "asset" : {
        "generator" : "Khronos glTF Blender I/O v3.4.50",
        "version" : "2.0"
    },
    "scene" : 0,
    "scenes" : [
        {
            "name" : "Scene",
            "nodes" : [
                0,
                1,
                2
            ]
        }
    ],
    "nodes" : [
        {
            "mesh" : 0,
            "name" : "Sphere",
            "scale" : [
                3.458770990371704,
                3.458770990371704,
                3.458770990371704
            ]
        },
        {
            "mesh" : 1,
            "name" : "Sphere.001",
            "scale" : [
                3.4810104370117188,
                3.4810104370117188,
                3.4810104370117188
            ]
        },
        {
            "mesh" : 2,
            "name" : "Sphere.002",
            "scale" : [
                3.4073922634124756,
                3.4073922634124756,
                3.4073922634124756
            ]
        }
    ],
    "materials" : [
        {
            "doubleSided" : true,
            "name" : "Material.003",
            "normalTexture" : {
                "index" : 0
            },
            "pbrMetallicRoughness" : {
                "baseColorFactor" : [
                    0.08939489722251892,
                    0.21404127776622772,
                    0.07374593615531921,
                    1
                ],
                "metallicFactor" : 0,
                "roughnessFactor" : 0.5
            }
        },
        {
            "doubleSided" : true,
            "name" : "Material.004",
            "normalTexture" : {
                "index" : 1
            },
            "pbrMetallicRoughness" : {
                "baseColorFactor" : [
                    0.01593955233693123,
                    0.022802861407399178,
                    0.2699349820613861,
                    1
                ],
                "metallicFactor" : 0,
                "roughnessFactor" : 0.5
            }
        }
    ],
    "meshes" : [
        {
            "name" : "Sphere",
            "primitives" : [
                {
                    "attributes" : {
                        "POSITION" : 0,
                        "TEXCOORD_0" : 1,
                        "NORMAL" : 2
                    },
                    "indices" : 3,
                    "material" : 0
                }
            ]
        },
        {
            "name" : "Sphere.001",
            "primitives" : [
                {
                    "attributes" : {
                        "POSITION" : 4,
                        "TEXCOORD_0" : 5,
                        "NORMAL" : 6
                    },
                    "indices" : 7,
                    "material" : 1
                }
            ]
        },
        {
            "name" : "Sphere.002",
            "primitives" : [
                {
                    "attributes" : {
                        "POSITION" : 8,
                        "TEXCOORD_0" : 9,
                        "NORMAL" : 10
                    },
                    "indices" : 11
                }
            ]
        }
    ],
    "textures" : [
        {
            "sampler" : 0,
            "source" : 0
        },
        {
            "sampler" : 0,
            "source" : 1
        }
    ],
    "images" : [
        {
            "mimeType" : "image/png",
            "name" : "untitled_Material.001_Normal",
            "uri" : "untitled_Material_001_Normal.png"
        },
        {
            "mimeType" : "image/png",
            "name" : "untitled_Material.002_Normal",
            "uri" : "untitled_Material_002_Normal.png"
        }
    ],
    "accessors" : [
        {
            "bufferView" : 0,
            "componentType" : 5126,
            "count" : 1133,
            "max" : [
                1.0200226306915283,
                1,
                0.9999993443489075
            ],
            "min" : [
                -1.025907039642334,
                -1,
                -1.0334972143173218
            ],
            "type" : "VEC3"
        },
        {
            "bufferView" : 1,
            "componentType" : 5126,
            "count" : 1133,
            "type" : "VEC2"
        },
        {
            "bufferView" : 2,
            "componentType" : 5126,
            "count" : 1133,
            "type" : "VEC3"
        },
        {
            "bufferView" : 3,
            "componentType" : 5123,
            "count" : 3768,
            "type" : "SCALAR"
        },
        {
            "bufferView" : 4,
            "componentType" : 5126,
            "count" : 559,
            "max" : [
                0.9999997019767761,
                1,
                0.9999993443489075
            ],
            "min" : [
                -0.9999990463256836,
                -1,
                -1
            ],
            "type" : "VEC3"
        },
        {
            "bufferView" : 5,
            "componentType" : 5126,
            "count" : 559,
            "type" : "VEC2"
        },
        {
            "bufferView" : 6,
            "componentType" : 5126,
            "count" : 559,
            "type" : "VEC3"
        },
        {
            "bufferView" : 7,
            "componentType" : 5123,
            "count" : 2880,
            "type" : "SCALAR"
        },
        {
            "bufferView" : 8,
            "componentType" : 5126,
            "count" : 2240,
            "max" : [
                0.9999997019767761,
                1.0270119905471802,
                0.9999993443489075
            ],
            "min" : [
                -0.9999990463256836,
                -1.0452994108200073,
                -1
            ],
            "type" : "VEC3"
        },
        {
            "bufferView" : 9,
            "componentType" : 5126,
            "count" : 2240,
            "type" : "VEC2"
        },
        {
            "bufferView" : 10,
            "componentType" : 5126,
            "count" : 2240,
            "type" : "VEC3"
        },
        {
            "bufferView" : 11,
            "componentType" : 5123,
            "count" : 3264,
            "type" : "SCALAR"
        }
    ],
    "bufferViews" : [
        {
            "buffer" : 0,
            "byteLength" : 13596,
            "byteOffset" : 0,
            "target" : 34962
        },
        {
            "buffer" : 0,
            "byteLength" : 9064,
            "byteOffset" : 13596,
            "target" : 34962
        },
        {
            "buffer" : 0,
            "byteLength" : 13596,
            "byteOffset" : 22660,
            "target" : 34962
        },
        {
            "buffer" : 0,
            "byteLength" : 7536,
            "byteOffset" : 36256,
            "target" : 34963
        },
        {
            "buffer" : 0,
            "byteLength" : 6708,
            "byteOffset" : 43792,
            "target" : 34962
        },
        {
            "buffer" : 0,
            "byteLength" : 4472,
            "byteOffset" : 50500,
            "target" : 34962
        },
        {
            "buffer" : 0,
            "byteLength" : 6708,
            "byteOffset" : 54972,
            "target" : 34962
        },
        {
            "buffer" : 0,
            "byteLength" : 5760,
            "byteOffset" : 61680,
            "target" : 34963
        },
        {
            "buffer" : 0,
            "byteLength" : 26880,
            "byteOffset" : 67440,
            "target" : 34962
        },
        {
            "buffer" : 0,
            "byteLength" : 17920,
            "byteOffset" : 94320,
            "target" : 34962
        },
        {
            "buffer" : 0,
            "byteLength" : 26880,
            "byteOffset" : 112240,
            "target" : 34962
        },
        {
            "buffer" : 0,
            "byteLength" : 6528,
            "byteOffset" : 139120,
            "target" : 34963
        }
    ],
    "samplers" : [
        {
            "magFilter" : 9729,
            "minFilter" : 9987
        }
    ],
    "buffers" : [
        {
            "byteLength" : 145648,
            "uri" : "untitled.bin"
        }
    ]
}
